# xmcd
#
# Track frame offsets: 
#        150
#        17379
#        33985
#        49232
#        68080
#        93190
#        115045
#        129118
#        150870
#        169583
#        193310
#        222060
#        241800
#
# Disc length: 3393 seconds
#
# Revision: 2
# Processed by: cddbd v1.5.2PL0 Copyright (c) Steve Scherf et al.
# Submitted via: ExactAudioCopy v0.99pb4
#
DISCID=950d3f0d
DTITLE=Roy Rogers and Norton Buffalo - Roots Of Our Nature
DYEAR=2002
DGENRE=Blues
TTITLE0=Don't Throw Your Changes On Me
TTITLE1=All I Want
TTITLE2=Under The Rug
TTITLE3=Requiem
TTITLE4=If I Were A King
TTITLE5=Ritmo De Las Almas (Rythm Of The Souls)
TTITLE6=Making New Love Out Of Old
TTITLE7=Long Hard Road
TTITLE8=Trinity
TTITLE9=Deny And Down The Distance
TTITLE10=Seven Hearts
TTITLE11=Highway Bound
TTITLE12=Happy Go Lucky
EXTD=
EXTT0=
EXTT1=
EXTT2=
EXTT3=
EXTT4=
EXTT5=
EXTT6=
EXTT7=
EXTT8=
EXTT9=
EXTT10=
EXTT11=
EXTT12=
PLAYORDER=
